<?xml version="1.0" standalone="no"?>
<!DOCTYPE svg PUBLIC "-//W3C//DTD SVG 20010904//EN"
 "http://www.w3.org/TR/2001/REC-SVG-20010904/DTD/svg10.dtd">
<svg version="1.0" xmlns="http://www.w3.org/2000/svg"
 width="32.000000pt" height="32.000000pt" viewBox="0 0 32.000000 32.000000"
 preserveAspectRatio="xMidYMid meet">

<g transform="translate(0.000000,32.000000) scale(0.100000,-0.100000)"
fill="#000000" stroke="none">
<path d="M79 287 c-47 -31 -82 -104 -73 -151 26 -141 201 -183 280 -68 35 51
39 97 12 150 -44 89 -143 120 -219 69z m131 -66 c0 -14 -8 -21 -27 -23 -39 -4
-42 -28 -4 -28 24 0 31 -4 31 -20 0 -16 -7 -20 -30 -20 -27 0 -30 -3 -30 -30
0 -23 -4 -30 -20 -30 -18 0 -20 7 -20 85 l0 85 50 0 c43 0 50 -3 50 -19z"/>
</g>
</svg>
